# xmcd
#
# Track frame offsets:
#	150
#	11541
#	24051
#	36229
#	45291
#	54172
#	64878
#	73862
#	83416
#	93979
#	105865
#	114673
#	124451
#	135983
#	145766
#	158667
#	168296
#	177745
#	189040
#	198358
#	209841
#	221407
#	233884
#	242119
#	252984
#
# Disc length: 3522 seconds
# Revision: 0
# Processed by: cddbd v1.5.2PL0 Copyright (c) Steve Scherf et al.
# Submitted via: dBpowerAMP V12.0
#
DISCID=4e0dc019
DTITLE=Sonny Knight - Confidential
DYEAR=1900
DGENRE=R&B
TTITLE0=Confidential
TTITLE1=Dedicated to You (orig)
TTITLE2=Madness
TTITLE3=Saving My Love for You
TTITLE4=Worthless and Lowdown
TTITLE5=Baby Don't Want Me
TTITLE6=If You Want This Love
TTITLE7=Barbara
TTITLE8=So Wonderful
TTITLE9=Those Oldies But Goodies
TTITLE10=Keep A Walkin'
TTITLE11=School's Out
TTITLE12=Cold, Cold Night
TTITLE13=I'm Lost Without You
TTITLE14=But Officer
TTITLE15=Dear Wonderful God
TTITLE16=Short Walk
TTITLE17=Once in a While
TTITLE18=Coldest Cat in Town
TTITLE19=Isha Allah
TTITLE20=Teenage Party
TTITLE21=Dedicated to You
TTITLE22=Jail Bird
TTITLE23=Lovesick Blues
TTITLE24=End of a Dream
EXTD=
EXTT0=
EXTT1=
EXTT2=
EXTT3=
EXTT4=
EXTT5=
EXTT6=
EXTT7=
EXTT8=
EXTT9=
EXTT10=
EXTT11=
EXTT12=
EXTT13=
EXTT14=
EXTT15=
EXTT16=
EXTT17=
EXTT18=
EXTT19=
EXTT20=
EXTT21=
EXTT22=
EXTT23=
EXTT24=
PLAYORDER=
